<svg width="200" height="50" xmlns="http://www.w3.org/2000/svg">
 <style type="text/css">.st0{fill:#5179BC;}
	.st1{fill:#D5402F;}
	.st2{fill:#EBB621;}
	.st3{fill:#45A256;}
	.st4{fill:url(#SVGID_1_);}
	.st5{fill:url(#SVGID_2_);}</style>

 <g>
  <title>background</title>
  <rect fill="none" id="canvas_background" height="402" width="582" y="-1" x="-1"/>
 </g>
 <g>
  <title>Layer 1</title>
  <text font-weight="bold" xml:space="preserve" text-anchor="start" font-family="'Courier New', Courier, monospace" font-size="24" id="svg_13" y="32.362806" x="157" stroke-opacity="null" stroke-width="0" stroke="#000" fill="#56ff56">搜</text>
  <text font-weight="bold" xml:space="preserve" text-anchor="start" font-family="'Courier New', Courier, monospace" font-size="24" id="svg_14" y="32.362806" x="124" stroke-opacity="null" stroke-width="0" stroke="#000" fill="#bf5f00">搜</text>
  <text font-weight="bold" stroke="#000" xml:space="preserve" text-anchor="start" font-family="'Courier New', Courier, monospace" font-size="24" id="svg_15" y="32.362806" x="52" stroke-opacity="null" stroke-width="0" fill="#bf00ff">搜</text>
  <text font-weight="bold" xml:space="preserve" text-anchor="start" font-family="'Courier New', Courier, monospace" font-size="24" id="svg_16" y="32.362806" x="19" stroke-opacity="null" stroke-width="0" stroke="#000" fill="#007fff">搜</text>
  <path id="svg_17" d="m99.966,10.466c-8.560513,0 -15.5,6.939486 -15.5,15.499999c0,8.560513 6.939487,15.499999 15.5,15.499999c8.560513,0 15.5,-6.939486 15.5,-15.499999c0,-8.560513 -6.939487,-15.499999 -15.5,-15.499999zm-8.264036,6.413719c0.130109,0.058656 0.271949,0.110912 0.29861,0.146106c0.041592,0.05439 0.095982,0.219692 0.027728,0.260217c-0.06932,0.041592 -0.1781,0.027728 -0.19303,-0.095982c-0.013864,-0.122643 -0.027728,-0.136507 -0.191964,-0.191964c-0.023462,-0.007465 -0.037326,-0.010665 -0.05439,-0.015997c0.037326,-0.034127 0.075719,-0.068254 0.113045,-0.102381zm-0.552429,0.526834c0.03306,0.092782 0.120511,0.133308 0,0.181299c-0.063988,0.025595 -0.130109,0.029861 -0.185565,0.022396c0.061855,-0.067187 0.120511,-0.13864 0.185565,-0.203695zm8.816465,20.858984c-6.783783,0 -12.300605,-5.516822 -12.300605,-12.299538c0,-0.09065 0.011731,-0.179166 0.013864,-0.270882c0.004266,-0.003199 0.008532,-0.006399 0.012798,-0.009598c0.137574,-0.108779 0.30181,-0.382861 0.356199,-0.479909c0.055456,-0.094915 0.19303,-0.164236 0.12371,-0.273015c-0.062921,-0.102381 -0.311408,-0.245287 -0.434051,-0.278347c0.010665,-0.10558 0.034127,-0.207961 0.047991,-0.313541c0.067187,0.082118 0.146106,0.181299 0.221825,0.206894c0.122643,0.040526 0.534299,0.055456 0.603619,0.055456c0.067187,0 0.356199,0.014931 0.411655,-0.068254c0.05439,-0.082118 0.095982,-0.082118 0.164236,-0.082118c0.068254,0 0.191964,0.246353 0.289012,0.274081c0.094915,0.027728 0.274081,0.013864 0.260217,0.19303c-0.012798,0.177033 0.082118,0.329538 0.1781,0.342335c0.095982,0.013864 0.315674,-0.206894 0.315674,-0.206894s0,0.343402 -0.012798,0.467112c-0.013864,0.121577 0.150372,0.575891 0.150372,0.575891s0.205828,0.423387 0.260217,0.520435c0.055456,0.095982 0.287945,0.383927 0.287945,0.507637c0,0.124776 0.027728,0.31674 0.110912,0.31674s0.165302,-0.219692 0.260217,-0.357266c0.097048,-0.136507 0.124776,-0.330604 0.165302,-0.467112c0.041592,-0.137574 0.041592,-0.383927 0.041592,-0.479909c0,-0.097048 0.081051,-0.179166 0.274081,-0.261284c0.19303,-0.082118 0.329538,-0.315674 0.493773,-0.439383c0.165302,-0.12371 0.151438,-0.329538 0.482042,-0.329538c0.328471,0 0.300743,0 0.383927,-0.083184c0.082118,-0.082118 0.164236,-0.136507 0.204761,0.013864c0.041592,0.151438 0.274081,0.370063 0.315674,0.425519c0.041592,0.055456 0.12371,0.205828 0.110912,0.37113c-0.013864,0.163169 0.012798,0.356199 0.082118,0.356199c0.068254,0 0.205828,-0.233556 0.205828,-0.233556s0.30181,-0.204761 0.287945,0.014931c-0.014931,0.218625 0.026662,0.453248 0.026662,0.588689c0,0.13864 0.24742,0.467112 0.24742,0.38606c0,-0.084251 0.109846,-0.315674 0.109846,-0.44045c0,-0.121577 0.068254,-0.067187 0.246353,0.05439c0.1781,0.12371 0.30181,0.372196 0.30181,0.372196s0.179166,0.164236 0.205828,0.233556c0.027728,0.068254 0.219692,-0.026662 0.260217,-0.110912c0.041592,-0.081051 0.06932,-0.122643 0.1781,-0.150372c0.110912,-0.027728 0.246353,-0.027728 0.289012,-0.179166c0.041592,-0.151438 0.164236,-0.328471 0,-0.535365c-0.164236,-0.205828 -0.24742,-0.342335 -0.370063,-0.439383c-0.124776,-0.095982 -0.219692,-0.343402 -0.219692,-0.343402s0.260217,-0.232489 0.342335,-0.315674c0.084251,-0.082118 0.205828,-0.026662 0.220758,0.068254c0.013864,0.097048 -0.122643,0.179166 -0.150372,0.384994c-0.027728,0.204761 0.164236,0.274081 0.219692,0.204761c0.05439,-0.06932 0.191964,-0.233556 0.191964,-0.274081c0,-0.041592 -0.094915,-0.027728 -0.108779,-0.1781c-0.013864,-0.151438 0.177033,-0.261284 0.245287,-0.220758c0.070387,0.041592 0.508704,-0.05439 0.714531,-0.164236s0.328471,-0.343402 0.453248,-0.439383c0.12371,-0.094915 0.549229,-0.411655 0.521501,-0.562027c-0.027728,-0.151438 0.012798,-0.356199 -0.095982,-0.549229c-0.109846,-0.191964 -0.24742,-0.314607 -0.30181,-0.397791c-0.05439,-0.082118 0.233556,-0.095982 0.370063,-0.219692c0.137574,-0.12371 0,-0.233556 -0.068254,-0.219692c-0.068254,0.013864 -0.24742,0.055456 -0.315674,0.041592c-0.068254,-0.013864 -0.109846,-0.082118 -0.219692,-0.165302c-0.108779,-0.082118 0.027728,-0.204761 0.097048,-0.190897c0.068254,0.013864 0.245287,-0.137574 0.328471,-0.205828c0.082118,-0.068254 0.205828,-0.122643 0.164236,-0.05439c-0.040526,0.068254 -0.136507,0.315674 -0.027728,0.329538c0.110912,0.013864 0.37113,-0.205828 0.413788,-0.191964c0.040526,0.013864 0.108779,0.191964 0.068254,0.274081c-0.041592,0.082118 -0.041592,0.219692 0.013864,0.205828c0.05439,-0.013864 0.164236,-0.137574 0.191964,-0.095982c0.028795,0.041592 0.164236,0.12371 0.095982,0.274081c-0.067187,0.151438 -0.205828,0.205828 -0.041592,0.302876c0.164236,0.094915 0.219692,0.012798 0.343402,-0.055456c0.122643,-0.068254 0.205828,-0.370063 0.136507,-0.467112c-0.068254,-0.095982 -0.232489,-0.287945 -0.232489,-0.356199c0,-0.068254 0.274081,-0.068254 0.274081,-0.1781s0.095982,-0.191964 0.191964,-0.233556c0.097048,-0.041592 0.219692,-0.219692 0.260217,-0.164236c0.041592,0.055456 0.289012,0.12371 0.356199,0.041592c0.068254,-0.082118 0.426586,-0.383927 0.645211,-0.549229c0.219692,-0.164236 0.30181,-0.356199 0.358332,-0.549229c0.05439,-0.191964 0.136507,-0.315674 0.108779,-0.466045l0,0c0.082118,0.191964 0.095982,0.329538 0.082118,0.479909c-0.013864,0.151438 0,0.467112 0.027728,0.507637c0.026662,0.041592 0.137574,0.136507 0.204761,0.109846c0.068254,-0.026662 -0.026662,-0.30181 -0.026662,-0.356199c0,-0.055456 0.095982,-0.137574 0.151438,-0.151438c0.055456,-0.013864 0,-0.246353 -0.06932,-0.343402c-0.067187,-0.095982 -0.164236,-0.151438 -0.108779,-0.164236c0.05439,-0.013864 0.122643,-0.12371 0.082118,-0.151438c-0.041592,-0.026662 -0.014931,-0.12371 -0.109846,-0.095982c-0.06932,0.020263 -0.257018,-0.015997 -0.250619,0.101314c-0.039459,-0.117311 -0.12371,-0.195163 -0.230356,-0.183432c-0.12371,0.013864 -0.19303,0.082118 -0.315674,0.082118s-0.026662,-0.191964 -0.082118,-0.191964c-0.05439,0 -0.179166,0.1781 -0.246353,0.082118c-0.068254,-0.095982 0.191964,-0.219692 0.397791,-0.287945c0.204761,-0.068254 0.548163,-0.467112 0.686803,-0.480976c0.136507,-0.013864 0.479909,0.027728 0.781719,0.013864c0.30181,-0.013864 0.397791,-0.137574 0.493773,-0.068254s0.30181,0.151438 0.425519,0.137574c0.12371,-0.014931 0.068254,0 0.260217,-0.137574c0.191964,-0.137574 0.37113,-0.205828 0.467112,-0.315674c0.095982,-0.109846 0.357266,-0.191964 0.37113,-0.082118c0.014931,0.109846 -0.027728,0.219692 0.082118,0.219692s0.275148,-0.109846 0.411655,-0.164236c0.137574,-0.05439 0.246353,-0.12371 0.246353,-0.12371s-0.562027,0.383927 -0.698534,0.467112c-0.137574,0.082118 -0.467112,0.137574 -0.604686,0.30181c-0.136507,0.165302 -0.218625,0.219692 -0.204761,0.398858c0.014931,0.1781 0.246353,0.411655 0.136507,0.575891c-0.109846,0.164236 -0.150372,0.397791 -0.150372,0.397791s0.164236,-0.233556 0.397791,-0.383927s0.37113,-0.356199 0.453248,-0.439383s0.329538,-0.097048 0.329538,-0.19303s0.068254,-0.219692 0.110912,-0.329538c0.040526,-0.109846 -0.082118,-0.083184 0,-0.219692c0.081051,-0.137574 0.068254,-0.24742 0.479909,-0.24742s0.274081,0.027728 0.603619,0.013864c0.329538,-0.013864 0.452181,-0.1781 0.767855,-0.261284c0.315674,-0.082118 0.562027,-0.136507 0.659075,-0.094915c0.095982,0.040526 0.24742,0.012798 0.150372,-0.083184c-0.094915,-0.095982 -0.314607,-0.233556 -0.205828,-0.261284c0.110912,-0.027728 0.220758,-0.041592 0.26235,-0.151438c0.041592,-0.109846 -0.151438,-0.30181 -0.041592,-0.411655c0.110912,-0.109846 -0.082118,-0.246353 -0.220758,-0.274081c-0.136507,-0.026662 -0.671873,0.027728 -0.779586,-0.026662c-0.110912,-0.055456 -0.289012,-0.12371 -0.343402,-0.083184c-0.055456,0.041592 -0.179166,0.261284 -0.179166,0.261284s-0.095982,0.026662 -0.179166,-0.095982c-0.081051,-0.12371 -0.533232,-0.109846 -0.670806,-0.109846s-0.289012,0.026662 -0.44045,0.041592c-0.150372,0.013864 -0.233556,0.055456 -0.343402,-0.041592c-0.108779,-0.095982 -0.259151,-0.137574 -0.315674,-0.1781c-0.05439,-0.041592 -0.356199,-0.041592 -0.589755,-0.012798c-0.232489,0.026662 -0.467112,0.026662 -0.467112,0.026662s-0.110912,-0.041592 -0.274081,-0.137574c-0.164236,-0.095982 -0.329538,-0.164236 -0.384994,-0.164236c-0.05439,0 -0.478843,0.068254 -0.574825,0c-0.097048,-0.068254 -0.19303,-0.109846 -0.261284,-0.109846s-0.122643,-0.109846 -0.040526,-0.109846s0.466045,-0.109846 0.466045,-0.109846s-0.109846,-0.151438 -0.246353,-0.151438c-0.136507,0 -0.382861,-0.068254 -0.452181,-0.068254s-0.014931,0.068254 -0.151438,0.041592c-0.13864,-0.027728 -0.275148,-0.083184 -0.357266,-0.027728c-0.081051,0.05439 -0.275148,0.136507 -0.068254,0.191964c0.205828,0.055456 0.397791,0 0.453248,0.083184c0.055456,0.082118 0,0.122643 0,0.1781s-0.109846,0.205828 -0.1781,0.233556c-0.068254,0.026662 -0.152504,-0.041592 -0.287945,0.026662c-0.137574,0.068254 -0.480976,0.013864 -0.522568,0.055456c-0.040526,0.041592 -0.122643,-0.109846 -0.191964,-0.082118c-0.068254,0.026662 -0.24742,0.205828 -0.343402,0.191964c-0.094915,-0.013864 -0.219692,-0.109846 -0.219692,-0.219692s-0.040526,-0.24742 -0.082118,-0.275148c-0.040526,-0.026662 -0.343402,-0.041592 -0.453248,-0.026662c-0.109846,0.013864 -0.452181,0.040526 -0.508704,0.095982c-0.055456,0.055456 -0.205828,0.095982 -0.30181,0.095982s-0.1781,-0.095982 -0.383927,-0.12371c-0.204761,-0.027728 -0.658009,-0.041592 -0.713465,-0.027728s-0.232489,-0.026662 -0.165302,-0.082118c0.06932,-0.05439 0.274081,-0.233556 0.152504,-0.314607c-0.124776,-0.083184 -0.399924,-0.083184 -0.521501,-0.095982c-0.124776,-0.013864 -0.24742,-0.041592 -0.44045,-0.013864c-0.19303,0.027728 -0.233556,0.12371 -0.315674,0.041592c-0.082118,-0.082118 0.205828,0.041592 -0.082118,-0.082118c-0.287945,-0.12371 -0.425519,-0.109846 -0.508704,-0.068254c-0.082118,0.041592 0.013864,0.026662 -0.204761,0.109846c-0.219692,0.083184 -0.343402,0.12371 -0.398858,0.137574c-0.05439,0.012798 -0.396725,-0.06932 -0.438317,-0.097048c-0.040526,-0.026662 -0.19303,0.013864 -0.329538,0.068254s-0.237822,0.136507 -0.374329,0.109846c-0.137574,-0.028795 -0.357266,-0.028795 -0.49484,0.026662c-0.137574,0.05439 -0.233556,0.05439 -0.370063,0.150372c-0.13864,0.095982 -0.397791,0.151438 -0.397791,0.151438s-0.065054,-0.003199 -0.143973,-0.007465c2.160658,-1.876978 4.972925,-3.023428 8.053942,-3.023428c6.783783,0 12.300605,5.516822 12.300605,12.300604s-5.517889,12.299538 -12.300605,12.299538zm-1.185909,-8.118996c0,0 0.220758,-0.027728 0.220758,-0.124776c0,-0.094915 -0.220758,-0.218625 -0.300743,-0.108779c-0.083184,0.108779 -0.233556,0.218625 -0.220758,0.315674c0.020263,0.150372 0.300743,-0.082118 0.300743,-0.082118zm-0.013864,-3.089548c-0.19303,0.248486 -0.1781,0.194097 -0.315674,0.136507c-0.136507,-0.053323 -0.356199,0.12371 -0.315674,0.194097c0.041592,0.068254 0.343402,-0.014931 0.411655,0.108779c0.06932,0.12371 0.06932,0.137574 0.205828,0.110912c0.136507,-0.027728 0.274081,-0.218625 0.233556,-0.314607c-0.040526,-0.099181 -0.219692,-0.235689 -0.219692,-0.235689zm-0.040526,1.30322c-0.05439,0 -0.439384,0.068254 -0.480976,0.084251c-0.041592,0.013864 -0.287945,-0.026662 -0.287945,-0.026662c-0.095982,0.094915 -0.027728,0.190897 0.12371,0.177033s0.467112,-0.055456 0.535365,-0.055456c0.06932,0 0.164236,-0.179166 0.109846,-0.179166zm-0.589755,-3.814744c-0.202628,0.031994 -0.328471,0.467112 -0.165302,0.453248c0.165302,-0.012798 0.343402,-0.479909 0.165302,-0.453248zm0.479909,2.443271c-0.055456,-0.068254 -0.19303,-0.289012 -0.344468,-0.233556c-0.044792,0.01813 -0.163169,0.261284 -0.012798,0.261284c0.151438,0 0.412722,0.040526 0.357266,-0.027728zm0.12371,-0.164236c0.24742,-0.013864 0.1781,-0.261284 -0.013864,-0.274081c-0.05439,-0.004266 -0.233556,0.287945 0.013864,0.274081zm2.92318,2.264105c-0.205828,-0.041592 -0.260217,-0.108779 -0.479909,-0.218625c-0.220758,-0.109846 -0.714531,-0.109846 -0.727329,-0.041592c-0.014931,0.068254 0,0 -0.165302,-0.053323c-0.163169,-0.057589 -0.289012,0 -0.329538,-0.097048c-0.040526,-0.097048 -0.136507,-0.124776 -0.260217,-0.002133c-0.103447,0.103447 -0.151438,0.110912 0.083184,0.152504c0.232489,0.041592 0.30181,0.041592 0.204761,0.150372c-0.095982,0.110912 -0.164236,0.248486 -0.082118,0.260217c0.082118,0.015997 0.329538,-0.053323 0.356199,0c0.027728,0.057589 -0.05439,0.068254 0.220758,0.111979c0.275148,0.039459 0.329538,0.136507 0.382861,0.189831c0.05439,0.055456 0.219692,0.234622 0.110912,0.234622c-0.110912,0 -0.233556,0.136507 -0.151438,0.152504c0.082118,0.013864 0.329538,-0.041592 0.342335,0c0.014931,0.039459 0.152504,0.30181 0.289012,0.289012c0.137574,-0.013864 0.219692,-0.260217 0.287945,-0.330604c0.06932,-0.068254 0.343402,-0.110912 0.372196,0.012798c0.027728,0.12371 0.110912,0.248486 0.274081,0.331671c0.164236,0.081051 0.357266,0.164236 0.37113,0.094915c0.013864,-0.068254 -0.082118,-0.329538 -0.19303,-0.368997c-0.109846,-0.043725 -0.300743,-0.276214 -0.300743,-0.37113c0,-0.097048 -0.165302,-0.124776 -0.24742,-0.194097c-0.083184,-0.06932 -0.152504,-0.261284 -0.358332,-0.302876zm-10.183673,-2.031615c-0.089583,0.039459 -0.165302,0.507637 0,0.562027c0.164236,0.055456 0.260217,-0.218625 0.205828,-0.289012c-0.055456,-0.065054 -0.082118,-0.326338 -0.205828,-0.273015zm7.877976,1.166712c-0.125843,-0.053323 -0.357266,0.452181 -0.19303,0.493773c0.165302,0.042659 0.287945,-0.452181 0.19303,-0.493773zm0.275148,-4.707375c0.082118,0 0.191964,-0.05439 0.191964,-0.205828c0,-0.151438 0.191964,0 0.287945,-0.013864s0.150372,-0.109846 0.191964,-0.219692c0.005332,-0.013864 0.008532,-0.022396 0.009598,-0.028795c-0.003199,0.025595 -0.001066,0.099181 0.101314,0.124776c0.164236,0.040526 0.218625,-0.068254 0.218625,-0.109846s0.30181,-0.109846 0.358332,-0.151438c0.05439,-0.040526 0.275148,-0.109846 0.287945,-0.164236c0.013864,-0.05439 0,-0.37113 0.068254,-0.397791c0.068254,-0.027728 0.164236,-0.027728 0.055456,-0.219692c-0.110912,-0.19303 -0.110912,-0.37113 -0.24742,-0.289012c-0.101314,0.060788 -0.040526,0.302876 -0.122643,0.467112s-0.151438,0.315674 -0.205828,0.315674s-0.342335,0.109846 -0.425519,0.191964c-0.081051,0.082118 -0.479909,-0.068254 -0.534299,0c-0.055456,0.068254 -0.164236,0.150372 -0.233556,0.205828c-0.06932,0.05439 -0.261284,0.013864 -0.220758,0.1781c0.038393,0.166369 0.135441,0.31674 0.218625,0.31674zm1.879111,-1.756467c0.191964,-0.013864 0.37113,-0.068254 0.37113,-0.068254s0.289012,0.013864 0.24742,-0.12371c-0.042659,-0.136507 -0.343402,-0.150372 -0.399924,-0.136507c-0.05439,0.013864 -0.151438,-0.151438 -0.260217,-0.12371c-0.102381,0.024529 -0.136507,0.165302 -0.136507,0.205828c0,0.041592 -0.383927,0.122643 -0.261284,0.233556c0.12371,0.108779 0.248486,0.026662 0.439384,0.012798zm-3.774219,7.467386c0.110912,0.068254 0.315674,-0.233556 0.372196,-0.13864c0.05439,0.097048 -0.013864,0.13864 0.081051,0.26235c0.097048,0.121577 0.275148,0.108779 0.275148,0.108779s-0.013864,-0.329538 -0.165302,-0.412722c-0.151438,-0.082118 -0.24742,-0.177033 -0.068254,-0.150372c0.1781,0.027728 0.274081,-0.041592 0.233556,-0.121577c-0.041592,-0.083184 -0.30181,-0.041592 -0.384994,-0.027728s-0.205828,-0.055456 -0.205828,-0.055456c-0.082118,0.025595 -0.067187,0.094915 -0.095982,0.233556c-0.027728,0.135441 -0.151438,0.231423 -0.041592,0.30181zm7.480184,2.73015c-0.246353,-0.055456 -0.082118,0.041592 0,0.164236c0.082118,0.12371 0.24742,0.187698 0.275148,0.053323c0.011731,-0.067187 -0.028795,-0.162103 -0.275148,-0.217559zm1.056867,3.333769c-0.082118,0.068254 0,0.097048 -0.233556,0.234622c-0.234622,0.13864 -0.522568,0.289012 -0.576957,0.411655c-0.055456,0.12371 0.05439,0.19303 0.275148,0.204761c0.219692,0.013864 0.164236,0.056523 0.315674,-0.109846s0.289012,-0.260217 0.467112,-0.397791c0.179166,-0.136507 0.179166,-0.343402 0.179166,-0.343402s-0.19303,-0.189831 -0.205828,-0.150372c-0.023462,0.066121 -0.13864,0.083184 -0.220758,0.150372zm-3.637711,-3.333769c0.014931,-0.12371 -0.233556,-0.12371 -0.356199,-0.220758c-0.12371,-0.094915 -0.136507,-0.382861 -0.205828,-0.549229c-0.068254,-0.163169 -0.204761,-0.274081 -0.343402,-0.423387c-0.136507,-0.152504 -0.204761,-0.495906 -0.245287,-0.467112c-0.041592,0.026662 -0.164236,0.425519 -0.068254,0.549229c0.095982,0.12371 -0.041592,0.37113 -0.109846,0.536432c-0.06932,0.163169 -0.234622,-0.027728 -0.372196,-0.110912c-0.137574,-0.083184 -0.328471,-0.136507 -0.424453,-0.233556c-0.095982,-0.097048 0.165302,-0.357266 0.097048,-0.454314c-0.06932,-0.095982 -0.439384,-0.013864 -0.479909,-0.013864c-0.041592,0 -0.12371,-0.136507 -0.206894,-0.136507c-0.082118,0 -0.068254,0.275148 -0.068254,0.275148s-0.083184,-0.097048 -0.205828,-0.220758c-0.124776,-0.122643 0.012798,0.082118 -0.109846,0.205828c-0.124776,0.124776 -0.084251,0.083184 -0.137574,0.219692c-0.05439,0.137574 -0.1781,0.082118 -0.30181,-0.055456c-0.12371,-0.136507 -0.190897,-0.039459 -0.275148,0c-0.082118,0.041592 -0.150372,0.276214 -0.191964,0.329538c-0.041592,0.055456 -0.329538,0.124776 -0.398858,0.194097c-0.068254,0.066121 -0.095982,0.287945 -0.095982,0.343402c0,0.053323 -0.289012,0.024529 -0.384994,0.094915c-0.095982,0.068254 -0.245287,0.026662 -0.342335,0.026662c-0.095982,0 -0.425519,0.260217 -0.535365,0.328471c-0.109846,0.070387 -0.109846,0.317806 -0.05439,0.38606c0.05439,0.067187 0.164236,0.233556 0.095982,0.260217c-0.068254,0.027728 -0.110912,0.219692 0.05439,0.382861c0.164236,0.165302 0.109846,0.206894 0.122643,0.289012c0.014931,0.082118 0.083184,0.110912 0.19303,0.24742c0.108779,0.136507 -0.19303,0.246353 -0.233556,0.330604c-0.041592,0.081051 0.097048,0.204761 0.1781,0.274081c0.082118,0.067187 0.289012,0.027728 0.411655,-0.013864c0.124776,-0.041592 0.261284,-0.152504 0.342335,-0.165302c0.084251,-0.013864 0.467112,-0.027728 0.467112,-0.027728s0.137574,-0.204761 0.233556,-0.315674c0.094915,-0.108779 0.396725,-0.013864 0.396725,-0.013864s0.124776,-0.081051 0.454314,-0.150372c0.329538,-0.06932 0.190897,0.068254 0.315674,0.110912c0.122643,0.039459 0.287945,0.066121 0.382861,0.136507c0.095982,0.068254 0,0.232489 -0.012798,0.30181c-0.014931,0.068254 0.233556,0.040526 0.245287,-0.027728c0.014931,-0.068254 0.082118,-0.136507 0.220758,-0.218625c0.136507,-0.083184 0.026662,0.121577 0.081051,0.246353c0.055456,0.12371 0.137574,-0.167435 0.137574,-0.027728c0,0.041592 0.041592,0.083184 0.05439,0.12371c0.014931,0.041592 0.19303,0.055456 0.19303,0.191964c0,0.13864 0,0.220758 0.041592,0.246353c0.040526,0.027728 0.260217,0 0.357266,0.165302c0.094915,0.164236 0.164236,0.013864 0.218625,-0.055456c0.055456,-0.068254 0.246353,0.027728 0.30181,0.083184c0.055456,0.053323 0.205828,-0.110912 0.412722,-0.165302c0.204761,-0.05439 0.1781,-0.041592 0.233556,-0.122643c0.05439,-0.083184 0.095982,-0.30181 0.218625,-0.467112c0.122643,-0.163169 0.289012,-0.452181 0.289012,-0.672939c0,-0.219692 -0.014931,-0.727329 -0.165302,-0.958752c-0.150372,-0.233556 -0.437251,-0.468178 -0.424453,-0.590821zm-0.506571,3.361497c-0.06932,-0.013864 -0.220758,-0.066121 -0.220758,-0.066121c-0.151438,0.150372 0.151438,0.150372 0.110912,0.30181c-0.041592,0.150372 0.205828,0.094915 0.274081,0.068254c0.067187,-0.028795 0.234622,-0.344468 0.205828,-0.425519c-0.026662,-0.084251 -0.30181,0.135441 -0.370063,0.121577zm5.091303,-0.631347c-0.055456,0 -0.082118,0.068254 -0.204761,0c-0.124776,-0.067187 -0.097048,-0.039459 -0.179166,-0.1781c-0.082118,-0.135441 -0.097048,-0.315674 -0.233556,-0.245287c-0.05439,0.026662 0,0.179166 0.05439,0.232489c0.056523,0.055456 0.082118,0.246353 0.068254,0.30181c-0.012798,0.055456 -0.246353,0.12371 -0.137574,0.191964c0.110912,0.068254 0.31674,0 0.289012,0.083184c-0.026662,0.082118 -0.137574,0.190897 -0.013864,0.218625c0.122643,0.026662 0.164236,-0.094915 0.220758,-0.189831c0.05439,-0.099181 0.094915,-0.180233 0.190897,-0.235689c0.095982,-0.055456 0,-0.179166 -0.05439,-0.179166zm0.012798,-3.197261c0.179166,0.068254 0.49484,-0.246353 0.370063,-0.287945c-0.122643,-0.041592 -0.370063,0.287945 -0.370063,0.287945zm-9.483005,-1.358676c-0.030927,0.122643 0.205828,0.1781 0.219692,0.041592c0.012798,-0.137574 -0.191964,-0.151438 -0.219692,-0.041592zm0.370063,-3.664373c-0.068254,0.06932 -0.274081,0.205828 -0.30181,0.330604c-0.026662,0.122643 0.329538,-0.194097 0.425519,-0.315674c0.097048,-0.124776 0.287945,-0.055456 0.328471,-0.124776c0.042659,-0.067187 0.042659,-0.067187 0.042659,-0.067187s-0.151438,-0.026662 -0.274081,-0.067187c-0.124776,-0.041592 -0.275148,0.108779 -0.205828,-0.110912c0.068254,-0.219692 0.274081,-0.1781 0.233556,-0.343402c-0.041592,-0.164236 -0.179166,-0.205828 -0.220758,-0.205828c-0.095982,0 0.013864,0.150372 -0.12371,0.246353c-0.136507,0.095982 -0.289012,0.136507 -0.205828,0.30181c0.082118,0.164236 0.370063,0.286879 0.30181,0.356199zm-1.083528,3.499071c0.013864,-0.081051 -0.151438,-0.204761 -0.219692,-0.204761c-0.06932,0 -0.411655,-0.082118 -0.411655,-0.082118c-0.061855,0.024529 -0.143973,0.047991 -0.168501,0.082118c-0.007465,-0.011731 -0.023462,-0.025595 -0.052257,-0.041592c-0.151438,-0.079985 -0.329538,0 -0.384994,-0.108779c-0.053323,-0.110912 -0.135441,-0.110912 -0.190897,-0.041592c-0.100248,0.124776 0.026662,0.219692 0.067187,0.246353c0.040526,0.025595 0.19303,0.055456 0.329538,0.041592c0.085317,-0.008532 0.19303,-0.028795 0.223958,-0.062921c0.004266,0.014931 0.017063,0.028795 0.037326,0.046924c0.109846,0.098115 0.1781,0.13864 0.342335,0.12371c0.166369,-0.010665 0.413788,0.084251 0.427652,0.001066zm-0.397791,-0.809447c0.06932,0 0.205828,0 0.30181,0.027728c0.095982,0.026662 0.411655,0.053323 0.397791,-0.068254c-0.013864,-0.122643 -0.040526,-0.31674 0.094915,-0.438317c0.13864,-0.124776 0.274081,-0.191964 0.205828,-0.37113c-0.067187,-0.1781 -0.205828,-0.289012 -0.109846,-0.372196c0.095982,-0.081051 0.204761,-0.108779 0.204761,-0.177033c0,-0.06932 -0.231423,0.191964 -0.260217,-0.26235c-0.005332,-0.097048 -0.219692,0.026662 -0.233556,0.12371c-0.012798,0.097048 0.151438,0.1781 -0.109846,0.1781c-0.261284,0 -0.274081,0.206894 -0.329538,0.24742c-0.055456,0.041592 -0.109846,0.05439 -0.220758,0.081051c-0.108779,0.027728 -0.135441,0.13864 -0.163169,0.206894c-0.026662,0.067187 -0.219692,-0.12371 -0.274081,-0.068254c-0.05439,0.055456 -0.013864,0.315674 0.082118,0.534299c0.098115,0.220758 0.344468,0.358332 0.413788,0.358332zm-0.961951,-0.068254c0.06932,-0.082118 0.040526,-0.204761 -0.067187,-0.191964c-0.109846,0.013864 -0.205828,-0.179166 -0.383927,-0.30181c-0.179166,-0.121577 -0.315674,-0.206894 -0.480976,-0.383927c-0.164236,-0.1781 -0.370063,-0.289012 -0.479909,-0.382861c-0.110912,-0.097048 -0.274081,-0.13864 -0.343402,-0.12371c-0.169568,0.034127 0.246353,0.329538 0.289012,0.368997c0.041592,0.043725 0.412722,0.357266 0.412722,0.50977s0.246353,0.507637 0.315674,0.562027c0.068254,0.055456 0.410589,0.260217 0.466045,0.37113c0.055456,0.109846 0.1781,0.13864 0.1781,-0.013864c-0.001066,-0.151438 0.026662,-0.330604 0.093849,-0.413788zm-1.041936,-1.55064c0.068254,0.24742 0.205828,0.49484 0.260217,0.591888c0.055456,0.094915 0.289012,0.231423 0.37113,0.299677c0.082118,0.068254 0.204761,-0.025595 0.152504,-0.108779c-0.055456,-0.083184 -0.165302,-0.204761 -0.1781,-0.30181c-0.013864,-0.097048 -0.083184,-0.248486 -0.19303,-0.412722c-0.108779,-0.163169 -0.204761,-0.204761 -0.274081,-0.314607c-0.068254,-0.110912 -0.315674,-0.31674 -0.315674,-0.31674c-0.108779,0.013864 -0.108779,0.218625 -0.05439,0.289012c0.052257,0.067187 0.163169,0.027728 0.231423,0.274081z" stroke-opacity="null" stroke-width="1.5" stroke="#000" fill="#ff001d"/>
 </g>
</svg>